<svg width="336" height="349" xmlns="http://www.w3.org/2000/svg" xmlns:xlink="http://www.w3.org/1999/xlink" overflow="hidden"><defs><clipPath id="clip0"><rect x="384" y="731" width="336" height="349"/></clipPath></defs><g clip-path="url(#clip0)" transform="translate(-384 -731)"><path d="M161 49 175 49 175 91 161 91Z" fill="#FFFFFF" transform="matrix(1 0 0 1.03869 384 731)"/><path d="M238.192 76.6636 278.485 76.6636 278.485 90.9266 238.192 90.9266Z" fill="#FFFFFF" transform="matrix(-0.694062 0.720916 -0.694062 -0.720916 875.211 690.785)"/><path d="M76.6636 63.4703 90.9266 63.4703 90.9266 103.763 76.6636 103.763Z" fill="#FFFFFF" transform="matrix(-0.694062 0.720916 -0.694062 -0.720916 582.269 816.305)"/><path d="M252 147 287 147 287 161 252 161Z" fill="#FFFFFF" transform="matrix(1 0 0 1.03869 384 731)"/><path d="M49 147 84 147 84 161 49 161Z" fill="#FFFFFF" transform="matrix(1 0 0 1.03869 384 731)"/><path d="M112 245 123.9 126 211.75 126 224 245 112 245ZM266 245 245 245 232.4 117.6C231.7 110.6 225.75 105 218.4 105L117.6 105C110.25 105 104.3 110.6 103.6 117.6L91 245 70 245 70 266 49 266 49 287 287 287 287 266 266 266 266 245Z" fill="#FFFFFF" transform="matrix(1 0 0 1.03869 384 731)"/><path d="M184.8 140 193.55 231 207.9 231 198.8 140Z" fill="#FFFFFF" transform="matrix(1 0 0 1.03869 384 731)"/></g></svg>