<svg width="551" height="551" xmlns="http://www.w3.org/2000/svg" xmlns:xlink="http://www.w3.org/1999/xlink" overflow="hidden"><defs><clipPath id="clip0"><rect x="56" y="391" width="551" height="551"/></clipPath><clipPath id="clip1"><path d="M122.655 391.623 606.226 457.762 540.086 941.334 56.5151 875.194Z" fill-rule="evenodd" clip-rule="evenodd"/></clipPath><clipPath id="clip2"><path d="M122.655 391.623 606.226 457.762 540.086 941.334 56.5151 875.194Z" fill-rule="evenodd" clip-rule="evenodd"/></clipPath><clipPath id="clip3"><path d="M122.655 391.623 606.226 457.762 540.086 941.334 56.5151 875.194Z" fill-rule="evenodd" clip-rule="evenodd"/></clipPath></defs><g clip-path="url(#clip0)" transform="translate(-56 -391)"><g clip-path="url(#clip1)"><g clip-path="url(#clip2)"><g clip-path="url(#clip3)"><path d="M533.548 688.999C535.821 672.376 524.081 656.916 507.458 654.642L411.751 641.552C403.692 640.45 398.039 633.006 398.638 624.877 400.382 615.879 417.47 599.743 426.908 530.734 429.182 514.111 417.442 498.65 400.819 496.377 384.196 494.103 368.735 505.843 366.462 522.466 355.99 599.032 260.906 630.157 259.257 630.958L237.211 792.148C272.975 797.04 269.982 837.682 337.48 846.914 360.148 850.014 428.15 859.315 428.15 859.315 444.773 861.589 460.233 849.849 462.507 833.226 463.609 825.166 461.552 817.701 457.203 811.975 458.211 812.112 459.218 812.25 460.226 812.388 476.848 814.661 492.309 802.921 494.583 786.299 495.685 778.239 493.696 770.27 488.913 763.971 502.927 762.809 514.655 752.098 516.584 737.993 517.755 729.43 515.331 720.888 510.044 714.521 522.181 712.076 531.756 702.096 533.548 688.999Z" fill="#FFFFFF"/><path d="M212.33 598.882 136.772 588.548 107.836 800.11 183.394 810.445C194.476 811.961 204.783 804.134 206.299 793.052L229.723 621.787C231.239 610.705 223.412 600.398 212.33 598.882Z" fill="#FFFFFF"/></g></g></g></g></svg>